<mxfile host="app.diagrams.net" modified="2024-09-23T01:32:24.286Z" agent="Mozilla/5.0 (Windows NT 10.0; Win64; x64) AppleWebKit/537.36 (KHTML, like Gecko) Chrome/125.0.0.0 Safari/537.36" version="24.7.1" etag="m3zqvGbpOZer-d6SR1pF" type="github">
  <diagram name="第 1 页" id="QVBnynI42UWNxAdyY9l1">
    <mxGraphModel>
      <root>
        <mxCell id="0" />
        <mxCell id="1" parent="0" />
      </root>
    </mxGraphModel>
  </diagram>
</mxfile>
